<svg width="24" height="24" viewBox="0 0 24 24" fill="none" xmlns="http://www.w3.org/2000/svg">
<path fill-rule="evenodd" clip-rule="evenodd" d="M19.14 12.936C19.18 12.636 19.2 12.316 19.2 11.996C19.2 11.676 19.18 11.356 19.14 11.056L21.16 9.476C21.34 9.336 21.39 9.076 21.28 8.876L19.36 5.556C19.24 5.336 18.99 5.266 18.77 5.336L16.38 6.296C15.88 5.916 15.35 5.596 14.76 5.356L14.4 2.816C14.36 2.576 14.16 2.406 13.92 2.406H10.08C9.84 2.406 9.63 2.576 9.6 2.816L9.24 5.356C8.66 5.596 8.12 5.916 7.63 6.296L5.24 5.336C5.02 5.256 4.77 5.336 4.65 5.556L2.73 8.876C2.61 9.076 2.66 9.336 2.84 9.476L4.86 11.056C4.82 11.356 4.8 11.676 4.8 11.996C4.8 12.316 4.82 12.636 4.86 12.936L2.84 14.516C2.66 14.656 2.61 14.916 2.73 15.116L4.65 18.436C4.77 18.656 5.02 18.726 5.24 18.646L7.63 17.686C8.12 18.066 8.65 18.386 9.24 18.626L9.6 21.166C9.63 21.406 9.84 21.576 10.08 21.576H13.92C14.16 21.576 14.36 21.406 14.4 21.166L14.76 18.626C15.35 18.386 15.88 18.066 16.38 17.686L18.77 18.646C18.99 18.726 19.24 18.656 19.36 18.436L21.28 15.116C21.39 14.916 21.34 14.656 21.16 14.516L19.14 12.936ZM12 15.596C10.01 15.596 8.4 13.986 8.4 11.996C8.4 10.006 10.01 8.396 12 8.396C13.99 8.396 15.6 10.006 15.6 11.996C15.6 13.986 13.99 15.596 12 15.596Z" fill="#2C3E50"/>
</svg>