<svg width="100%" height="100%" viewBox="0 0 256 256" xmlns="http://www.w3.org/2000/svg" preserveAspectRatio="xMidYMid"><defs><linearGradient x1="0%" y1="100%" x2="100%" y2="0%" id="a"><stop stop-color="#A92073" offset="0%"/><stop stop-color="#F46EAA" offset="100%"/></linearGradient></defs><path d="M128 0c70.7 0 128 57.3 128 128s-57.3 128-128 128S0 198.7 0 128 57.3 0 128 0zm0 43.6C89.9 43.6 59.7 73.8 59.7 111.9v.4c0 38.5 30.7 68.8 68.7 68.8s68.3-30.3 68.3-68.8v-.4c0-38.1-30.2-68.3-68.3-68.3zm0 29.2c21.2 0 39.1 17.8 39.1 39.1s-17.9 39.1-39.1 39.1-39.1-17.8-39.1-39.1 17.9-39.1 39.1-39.1z" fill="url(#a)"/></svg>
