<svg viewBox="0 0 200 150" xmlns="http://www.w3.org/2000/svg">
    <!-- Background elements -->
    <circle cx="50" cy="50" r="40" fill="#E5F5F6"/>
    <rect x="120" y="30" width="60" height="60" rx="10" fill="#FFE0B2"/>
    <!-- Character -->
    <path d="M 100,140 C 80,140 70,120 70,100 L 130,100 C 130,120 120,140 100,140 Z" fill="#FFA726" /> <!-- Body -->
    <circle cx="100" cy="75" r="35" fill="#FFE0B2" /> <!-- Head -->
    <path d="M 80,50 C 80,30 120,30 120,50" fill="none" stroke="#6D4C41" stroke-width="5" stroke-linecap="round" /> <!-- Hair -->
    <circle cx="90" cy="75" r="3" fill="#222222" /> <!-- Left Eye -->
    <circle cx="110" cy="75" r="3" fill="#222222" /> <!-- Right Eye -->
    <path d="M 95,85 Q 100,95 105,85" fill="none" stroke="#222222" stroke-width="2" stroke-linecap="round" /> <!-- Mouth -->
    <!-- Book -->
    <rect x="80" y="100" width="40" height="30" rx="5" fill="#038D8F"/>
    <rect x="83" y="103" width="34" height="24" fill="#FFFFFF"/>
    <text x="100" y="113" font-family="Inter, sans-serif" font-size="7" font-weight="bold" fill="#038D8F" text-anchor="middle">UTH</text>
    <text x="100" y="121" font-family="Inter, sans-serif" font-size="5" font-weight="bold" fill="#038D8F" text-anchor="middle">STUDENT</text>
</svg>

